<?xml version="1.0" encoding="UTF-8"?>
<svg viewBox="0 0 600 100" xmlns="http://www.w3.org/2000/svg">
<path d="M0,0V100H600V0H0ZM97.64,88.85l-25.99-13.67-25.99,13.67,4.96-28.94-21.03-20.5,29.06-4.22,13-26.33,13,26.33,29.06,4.22-21.03,20.5,4.96,28.94Zm114.07,0l-25.99-13.67-25.99,13.67,4.96-28.94-21.03-20.5,29.06-4.22,13-26.33,13,26.33,29.06,4.22-21.03,20.5,4.96,28.94Zm114.07,0l-25.99-13.67-25.99,13.67,4.96-28.94-21.03-20.5,29.06-4.22,13-26.33,13,26.33,29.06,4.22-21.03,20.5,4.96,28.94Zm114.07,0l-25.99-13.67-25.99,13.67,4.96-28.94-21.03-20.5,29.06-4.22,13-26.33,13,26.33,29.06,4.22-21.03,20.5,4.96,28.94Zm114.07,0l-25.99-13.67-25.99,13.67,4.96-28.94-21.03-20.5,29.06-4.22,13-26.33,13,26.33,29.06,4.22-21.03,20.5,4.96,28.94Z"/>
</svg>